{"title":"Detective Naani (2009) - DVDRip - X264 - AC3","uid":8906886,"size":808691739,"categoryP":"video","categoryS":"movies","magnet":"?xt=urn:btih:8d6ccb48a1110768d50d0560b7a59313235eed1b&amp;dn=Detective+Naani+%282009%29+-+DVDRip+-+X264+-+AC3+&amp;tr=udp%3A%2F%2Ftracker.openbittorrent.com%3A80&amp;tr=udp%3A%2F%2Fopen.demonii.com%3A1337&amp;tr=udp%3A%2F%2Ftracker.coppersurfer.tk%3A6969&amp;tr=udp%3A%2F%2Fexodus.desync.com%3A6969","seeders":0,"leechers":1,"uploader":"Hacking_Guys","files":1,"time":1378928822,"description":"[CENTER][B][SIZE=&quot;5&quot;][COLOR=&quot;Red&quot;][FONT=&quot;Century Gothic&quot;]Detective Naani (2009) - DVDRip - X264 - AC3 - JalsaTime.Com[/FONT][/COLOR][/SIZE][/B]\n\n[IMG]http://images.moviepostershop.com/detective-naani-movie-poster-2009-1020522942.jpg[/IMG]\n\n[IMG]http://i.imgur.com/yElgnCZ.png[/IMG]\n\n[CODE]Format                           : Matroska\nFormat version                   : Version 2\nFile size                        : 771 MiB\nDuration                         : 2h 14mn\nOverall bit rate                 : 804 Kbps\nEncoded date                     : UTC 2013-09-04 01:03:47\nWriting application              : mkvmerge v2.9.8 ('C'est le bon') built on Nov 20 2009 13:01:15\nWriting library                  : libebml v0.7.9 + libmatroska v0.8.1\n\nVideo\nID                               : 1\nFormat                           : AVC\nFormat/Info                      : Advanced Video Codec\nFormat profile                   : &lt;a class=&quot;__cf_email__&quot; href=&quot;/cdn-cgi/l/email-protection&quot; data-cfemail=&quot;b3fbdad4dbf3ff809d83&quot;&gt;[email&amp;#160;protected]&lt;/a&gt;&lt;script cf-hash='f9e31' type=&quot;text/javascript&quot;&gt;\n/* &lt;![CDATA[ */!function(){try{var t=&quot;currentScript&quot;in document?document.currentScript:function(){for(var t=document.getElementsByTagName(&quot;script&quot;),e=t.length;e--;)if(t[e].getAttribute(&quot;cf-hash&quot;))return t[e]}();if(t&amp;&amp;t.previousSibling){var e,r,n,i,c=t.previousSibling,a=c.getAttribute(&quot;data-cfemail&quot;);if(a){for(e=&quot;&quot;,r=parseInt(a.substr(0,2),16),n=2;a.length-n;n+=2)i=parseInt(a.substr(n,2),16)^r,e+=String.fromCharCode(i);e=document.createTextNode(e),c.parentNode.replaceChild(e,c)}}}catch(u){}}();/* ]]&gt; */&lt;/script&gt;\nFormat settings, CABAC           : Yes\nFormat settings, ReFrames        : 3 frames\nCodec ID                         : V_MPEG4/ISO/AVC\nDuration                         : 2h 14mn\nBit rate                         : 610 Kbps\nWidth                            : 720 pixels\nHeight                           : 400 pixels\nDisplay aspect ratio             : 16:9\nFrame rate                       : 25.000 fps\nColor space                      : YUV\nChroma subsampling               : 4:2:0\nBit depth                        : 8 bits\nScan type                        : Progressive\nBits/(Pixel*Frame)               : 0.085\nStream size                      : 572 MiB (74%)\nWriting library                  : x264 core 79 r1342kMod e8501ef\nEncoding settings                : cabac=1 // deblock=1:0:0 / analyse=0x3:0x113 / me=hex / subme=7 / psy=1 / psy_rd=1.0:0.0 // me_range=16 / chroma_me=1 / trellis=1 / 8x8dct=1 / cqm=0 / deadzone=21,11 / chroma_qp_offset=-2 / threads=6 / nr=0 / decimate=1 / mbaff=0 / constrained_intra=0 / bframes=3 / b_pyramid=0 / b_adapt=1 / b_bias=0 / direct=1 / wpredb=1 / wpredp=2 / keyint=250 / keyint_min=25 / scenecut=40 / rc_lookahead=40 / rc=2pass / mbtree=1 / bitrate=610 / ratetol=1.0 / qcomp=0.60 / qpmin=10 / qpmax=51 / qpstep=4 / cplxblur=20.0 / qblur=0.5 / ip_ratio=1.40 / aq=1:1.00\n\nAudio\nID                               : 2\nFormat                           : AC-3\nFormat/Info                      : Audio Coding 3\nMode extension                   : CM (complete main)\nCodec ID                         : A_AC3\nDuration                         : 2h 14mn\nBit rate mode                    : Constant\nBit rate                         : 192 Kbps\nChannel(s)                       : 2 channels\nChannel positions                : Front: L R\nSampling rate                    : 48.0 KHz\nBit depth                        : 16 bits\nCompression mode                 : Lossy\nStream size                      : 184 MiB (24%)[/CODE]\n\n[IMG]http://i.imgur.com/WNFEzjW.png[/IMG]\n\n\n\n\n\n[B][SIZE=5][COLOR=DarkOrchid][FONT=&quot;Century Gothic&quot;]Please Seed Back After Download[/FONT][/COLOR][/SIZE][/B]\n\n[B][SIZE=5][COLOR=Red][FONT=Century Gothic]High Speed Seeding Njoy!!!!!\n\n[COLOR=&quot;Green&quot;]Credits: Original Releaser[/COLOR]\n[/FONT][/COLOR][/SIZE][/B][/CENTER]","torrent":{"xt":"urn:btih:8d6ccb48a1110768d50d0560b7a59313235eed1b","amp;dn":"Detective+Naani+%282009%29+-+DVDRip+-+X264+-+AC3+","amp;tr":["udp%3A%2F%2Ftracker.openbittorrent.com%3A80","udp%3A%2F%2Fopen.demonii.com%3A1337","udp%3A%2F%2Ftracker.coppersurfer.tk%3A6969","udp%3A%2F%2Fexodus.desync.com%3A6969"],"infoHash":"8d6ccb48a1110768d50d0560b7a59313235eed1b","infoHashBuffer":{"type":"Buffer","data":[141,108,203,72,161,17,7,104,213,13,5,96,183,165,147,19,35,94,237,27]},"announce":[],"urlList":[]}}